<?xml version="1.0" encoding="UTF-8"?>
<svg width="103px" height="88px" viewBox="0 0 103 88" version="1.1" xmlns="http://www.w3.org/2000/svg" xmlns:xlink="http://www.w3.org/1999/xlink">
    <!-- Generator: Sketch 53.1 (72631) - https://sketchapp.com -->
    <title>Group 2</title>
    <desc>Created with Sketch.</desc>
    <g id="Page-1" stroke="none" stroke-width="1" fill="none" fill-rule="evenodd">
        <g id="Group-2" fill="#000000">
            <path d="M-8.8817842e-15,15 C-9.89631482e-15,6.71572875 6.71572875,-7.765225e-13 15,-7.78044296e-13 L87.8571429,-7.78044296e-13 C96.1414141,-7.79566092e-13 102.857143,6.71572875 102.857143,15 L102.857143,58.4693878 C102.857143,66.753659 96.1414141,73.4693878 87.8571429,73.4693878 L49.5918367,73.4693878 L25.664366,87.3257189 C25.536265,87.3999018 25.3852625,87.4241112 25.2403914,87.3936923 C24.9160923,87.3255986 24.7083968,87.0075014 24.7764905,86.6832024 L27.5510204,73.4693878 L15,73.4693878 C6.71572875,73.4693878 2.24570545e-14,66.753659 1.77635684e-14,58.4693878 L-5.77315973e-16,15 Z M53,48 C59.0751322,48 64,43.0751322 64,37 C64,30.9248678 59.0751322,26 53,26 C46.9248678,26 42,30.9248678 42,37 C42,43.0751322 46.9248678,48 53,48 Z M81.8532535,25 L70,32.3241262 L74.3851524,47 L88.8918565,46.8840995 L94,33.2597067 L81.8532535,25 Z M26,26 L14,46 L38,46 L26,26 Z" id="Combined-Shape"></path>
        </g>
    </g>
</svg>