<?xml version="1.0" encoding="UTF-8"?>
<svg width="80px" height="84px" viewBox="0 0 80 84" version="1.1" xmlns="http://www.w3.org/2000/svg" xmlns:xlink="http://www.w3.org/1999/xlink">
    <!-- Generator: Sketch 53.1 (72631) - https://sketchapp.com -->
    <title>noun_Home_2313415</title>
    <desc>Created with Sketch.</desc>
    <g id="Page-1" stroke="none" stroke-width="1" fill="none" fill-rule="evenodd">
        <g id="noun_Home_2313415" fill="#000000" fill-rule="nonzero">
            <path d="M78.43,37.24 L42.03,0.84 C40.91,-0.28 39.1,-0.28 37.99,0.84 L1.59,37.24 C-0.21,39.04 1.06,42.12 3.61,42.12 L6.53,42.12 C8.11,42.12 9.39,43.4 9.39,44.98 L9.39,81.14 C9.39,82.72 10.67,84 12.25,84 L28.59,84 L28.59,65.32 C28.59,59.04 33.73,53.89 40.02,53.89 C46.3,53.89 51.45,59.03 51.45,65.32 L51.45,84 L67.79,84 C69.37,84 70.65,82.72 70.65,81.14 L70.65,44.98 C70.65,43.4 71.93,42.12 73.51,42.12 L76.43,42.12 C78.95,42.12 80.23,39.04 78.43,37.24 Z" id="Path"></path>
        </g>
    </g>
</svg>