<?xml version="1.0" encoding="UTF-8"?>
<svg width="76px" height="96px" viewBox="0 0 76 96" version="1.1" xmlns="http://www.w3.org/2000/svg" xmlns:xlink="http://www.w3.org/1999/xlink">
    <!-- Generator: Sketch 53.1 (72631) - https://sketchapp.com -->
    <title>noun_notification_1864245</title>
    <desc>Created with Sketch.</desc>
    <g id="Page-1" stroke="none" stroke-width="1" fill="none" fill-rule="evenodd">
        <g id="noun_notification_1864245" fill="#000000" fill-rule="nonzero">
            <g id="Group">
                <path d="M73.8,62.2 C71.1,58.3 69.5,53.8 69.5,49.1 L69.5,39.8 C69.5,24.5 59.9,12.9 45.3,9.8 L45.3,6.2 C45.3,3.1 42.8,0.5 39.6,0.5 L36.4,0.5 C33.3,0.5 30.7,3 30.7,6.2 L30.7,9.9 C16.1,13 6.5,24.6 6.5,39.9 L6.5,49.2 C6.5,53.9 4.8,58.4 2.2,62.3 C1.1,63.8 0.5,65.7 0.5,67.7 L0.5,68.5 C0.5,73.8 4.8,78.1 10.1,78.1 L65.9,78.1 C71.2,78.1 75.5,73.8 75.5,68.5 L75.5,67.7 C75.5,65.6 74.9,63.8 73.8,62.2 Z" id="Path"></path>
                <path d="M38,95.5 C43.6,95.5 48.2,90.9 48.3,85.2 L27.7,85.2 C27.8,90.9 32.4,95.5 38,95.5 Z" id="Path"></path>
            </g>
        </g>
    </g>
</svg>