<svg xmlns="http://www.w3.org/2000/svg" width="62" height="62" viewBox="0 0 62 62">
    <g fill="none" fill-rule="evenodd">
        <g fill="#00CFB1" fill-rule="nonzero">
            <path d="M9.116 52.875a30.835 30.835 0 0 0 9.834 6.63 30.753 30.753 0 0 0 12.045 2.433c4.175 0 8.228-.819 12.046-2.434a30.84 30.84 0 0 0 9.834-6.629 30.833 30.833 0 0 0 6.63-9.834 30.754 30.754 0 0 0 2.433-12.046c0-4.175-.819-8.228-2.434-12.045a30.834 30.834 0 0 0-6.629-9.834 30.834 30.834 0 0 0-9.834-6.63A30.752 30.752 0 0 0 30.995.053c-4.175 0-8.228.819-12.045 2.433a30.834 30.834 0 0 0-9.834 6.63 30.834 30.834 0 0 0-6.63 9.834A30.755 30.755 0 0 0 .053 30.995c0 4.175.818 8.228 2.433 12.046a30.835 30.835 0 0 0 6.63 9.834zM30.996 4.57c14.594 0 26.425 11.831 26.425 26.425 0 14.595-11.831 26.426-26.426 26.426C16.401 57.42 4.57 45.59 4.57 30.995 4.57 16.401 16.4 4.57 30.995 4.57z"/>
            <path d="M30.995 61.99c-4.182 0-8.242-.82-12.066-2.437a30.888 30.888 0 0 1-9.85-6.64 30.888 30.888 0 0 1-6.641-9.852A30.804 30.804 0 0 1 0 30.995c0-4.182.82-8.242 2.438-12.066a30.887 30.887 0 0 1 6.64-9.85 30.884 30.884 0 0 1 9.851-6.641A30.807 30.807 0 0 1 30.995 0c4.183 0 8.242.82 12.066 2.438a30.888 30.888 0 0 1 9.851 6.64 30.887 30.887 0 0 1 6.64 9.851 30.805 30.805 0 0 1 2.439 12.066c0 4.182-.82 8.242-2.438 12.066a30.886 30.886 0 0 1-6.64 9.851 30.893 30.893 0 0 1-9.852 6.641 30.807 30.807 0 0 1-12.066 2.437zm0-61.884A30.7 30.7 0 0 0 18.97 2.535a30.782 30.782 0 0 0-9.817 6.618 30.782 30.782 0 0 0-6.618 9.817 30.702 30.702 0 0 0-2.43 12.025c0 4.168.818 8.214 2.43 12.025a30.781 30.781 0 0 0 6.618 9.818 30.785 30.785 0 0 0 9.817 6.618 30.7 30.7 0 0 0 12.025 2.429c4.169 0 8.214-.817 12.025-2.43a30.784 30.784 0 0 0 9.818-6.617 30.783 30.783 0 0 0 6.618-9.818 30.7 30.7 0 0 0 2.43-12.025c0-4.168-.818-8.213-2.43-12.025a30.779 30.779 0 0 0-6.618-9.817 30.784 30.784 0 0 0-9.818-6.618A30.698 30.698 0 0 0 30.995.105zm0 57.367c-7.072 0-13.722-2.754-18.723-7.755-5-5.001-7.755-11.65-7.755-18.723 0-7.072 2.754-13.721 7.755-18.722 5.001-5.001 11.65-7.756 18.723-7.756 7.073 0 13.722 2.755 18.723 7.756 5.001 5 7.755 11.65 7.755 18.722 0 7.073-2.754 13.722-7.755 18.723-5.001 5.001-11.65 7.755-18.723 7.755zm0-52.85c-7.044 0-13.667 2.743-18.648 7.724S4.623 23.951 4.623 30.995c0 7.045 2.743 13.667 7.724 18.648 4.981 4.982 11.604 7.725 18.648 7.725 7.045 0 13.667-2.743 18.648-7.725 4.982-4.98 7.725-11.603 7.725-18.648 0-7.044-2.743-13.667-7.725-18.648-4.98-4.981-11.603-7.724-18.648-7.724z"/>
        </g>
        <g fill="#000">
            <path d="M24.333 42.241c.412.423.97.66 1.553.66s1.141-.237 1.553-.66l18.81-19.303a2.297 2.297 0 0 0 0-3.189 2.157 2.157 0 0 0-3.108 0L25.886 37.46l-7.037-7.222a2.157 2.157 0 0 0-3.106 0 2.297 2.297 0 0 0 0 3.188l8.59 8.816z"/>
            <path fill-rule="nonzero" d="M25.886 42.954c-.6 0-1.165-.24-1.59-.675l-8.59-8.816a2.353 2.353 0 0 1 0-3.264 2.205 2.205 0 0 1 3.18 0l7 7.185 17.219-17.672a2.205 2.205 0 0 1 3.18 0c.424.436.658 1.015.658 1.631 0 .617-.234 1.196-.658 1.632l-18.81 19.304c-.424.435-.988.675-1.59.675zm-8.59-13.325c-.573 0-1.112.229-1.517.645a2.246 2.246 0 0 0 0 3.114l8.59 8.816a2.104 2.104 0 0 0 3.034 0l18.809-19.303c.405-.416.628-.97.628-1.558 0-.588-.223-1.14-.628-1.557a2.104 2.104 0 0 0-3.035 0L25.886 37.533l-7.073-7.259a2.104 2.104 0 0 0-1.517-.645z"/>
        </g>
    </g>
</svg>
